<svg width="1043" height="757" viewBox="0 0 1043 757" fill="none" xmlns="http://www.w3.org/2000/svg">
<g opacity="0.3" clip-path="url(#clip0_1_15)">
<path d="M523.864 757H519.136C232.426 757 3.05176e-05 588.308 3.05176e-05 380.216C3.05176e-05 172.123 232.426 3.43164 519.134 3.43164H523.862C810.572 3.43164 1043 172.123 1043 380.214C1043 588.308 810.572 757 523.864 757Z" fill="#CAEEC5"/>
<path d="M82.8593 332.801H544.429V756.999H82.8593V332.801Z" fill="#981700"/>
<path d="M521.754 332.801H960.65V756.999H521.754V332.801Z" fill="#5B7F81"/>
<path d="M383.391 423.683C383.391 430.92 375.269 436.788 365.253 436.788H239.364C229.348 436.788 221.226 430.92 221.226 423.683C221.226 416.445 229.348 410.577 239.364 410.577H365.253C375.269 410.577 383.391 416.445 383.391 423.683Z" fill="#7A1700"/>
<path d="M636.705 496.526H845.686V674.997H636.705V496.526Z" fill="#234848"/>
<path d="M659.026 423.683C659.026 430.92 650.904 436.788 640.888 436.788H636.707C626.691 436.788 618.569 430.92 618.569 423.683C618.569 416.445 626.691 410.577 636.707 410.577H640.888C650.904 410.577 659.026 416.445 659.026 423.683ZM741.197 410.577H737.01C726.994 410.577 718.872 416.445 718.872 423.683C718.872 430.92 726.994 436.788 737.01 436.788H741.197C751.213 436.788 759.335 430.92 759.335 423.683C759.335 416.445 751.215 410.577 741.197 410.577ZM845.686 410.577H841.5C831.483 410.577 823.361 416.445 823.361 423.683C823.361 430.92 831.483 436.788 841.5 436.788H845.686C855.702 436.788 863.824 430.92 863.824 423.683C863.824 416.445 855.702 410.577 845.686 410.577Z" fill="#415E5C"/>
<path d="M540.312 16.5357C540.312 23.773 532.19 29.6412 522.173 29.6412H82.4335C72.4171 29.6412 64.2951 23.773 64.2951 16.5357C64.2951 9.29839 72.4171 3.43018 82.4335 3.43018H522.171C532.19 3.43165 540.312 9.29839 540.312 16.5357Z" fill="#663310"/>
<path d="M215.285 16.5357V141.155C215.285 148.392 207.163 154.261 197.147 154.261C187.131 154.261 179.009 148.392 179.009 141.155V16.5357C179.009 9.29839 187.131 3.43018 197.147 3.43018C207.163 3.43018 215.285 9.29839 215.285 16.5357Z" fill="#5B7F81"/>
<path d="M425.612 16.5357V141.155C425.612 148.392 417.491 154.261 407.474 154.261C397.458 154.261 389.336 148.392 389.336 141.155V16.5357C389.336 9.29839 397.458 3.43018 407.474 3.43018C417.491 3.43018 425.612 9.29839 425.612 16.5357Z" fill="#CF8F3D"/>
<path d="M741.197 332.801C677.213 332.801 624.878 294.86 624.878 248.479V223.802C624.878 222.182 624.951 220.57 625.065 218.974H857.328C857.444 220.57 857.528 222.181 857.528 223.802V248.479C857.526 294.86 805.18 332.801 741.197 332.801Z" fill="#C13421"/>
<path d="M624.876 223.801C624.876 222.181 624.949 220.569 625.063 218.972H748.037C748.153 220.569 748.237 222.179 748.237 223.801V248.477C748.237 280.563 723.178 308.6 686.553 322.841C649.93 308.6 624.876 280.563 624.876 248.477V223.801Z" fill="#FF4328"/>
<path d="M703.07 65.8249C719.703 87.4807 742.486 117.137 706.171 146.494C702.587 149.39 697.623 150.866 692.638 150.866C688.338 150.866 684.017 149.766 680.558 147.532C673.09 142.709 672.446 134.425 679.12 129.027C696.521 114.96 690.465 103.426 671.35 78.5431C655.378 57.7493 635.495 31.8694 662.326 5.36702C668.24 -0.474581 679.593 -1.7461 687.676 2.52532C695.761 6.7997 697.523 14.9981 691.607 20.8411C679.721 32.5864 685.971 43.5674 703.07 65.8249ZM802.159 65.8308C785.064 43.5718 778.812 32.5894 790.702 20.8471C796.618 15.0054 794.858 6.80414 786.773 2.53123C778.69 -1.74315 767.339 -0.470146 761.423 5.36998C734.586 31.8738 754.464 57.7537 770.437 78.549C789.549 103.432 795.604 114.966 778.205 129.031C771.529 134.429 772.173 142.713 779.645 147.536C783.106 149.772 787.423 150.869 791.725 150.869C796.712 150.869 801.674 149.393 805.258 146.497C841.569 117.138 818.79 87.4836 802.159 65.8308Z" fill="#FFBB5E"/>
<path d="M15.8731 344.176C15.8731 336.938 23.9951 331.07 34.0115 331.07H1008.99C1019.01 331.07 1027.13 336.938 1027.13 344.176C1027.13 351.413 1019.01 357.281 1008.99 357.281H34.0115C23.9951 357.281 15.8731 351.413 15.8731 344.176ZM1008.99 730.787H34.0115C23.9951 730.787 15.8731 736.656 15.8731 743.893C15.8731 751.13 23.9951 756.998 34.0115 756.998H1008.99C1019.01 756.998 1027.13 751.132 1027.13 743.893C1027.13 736.656 1019.01 730.787 1008.99 730.787Z" fill="#663310"/>
<path d="M247.942 164.873V178.712C247.942 198.968 225.08 215.533 197.145 215.533H197.133C169.198 215.533 146.335 198.968 146.335 178.712V164.873C146.335 144.618 169.198 128.053 197.133 128.053H197.145C225.08 128.051 247.942 144.618 247.942 164.873Z" fill="#415E5C"/>
<path d="M458.269 164.873V215.535H356.665V164.873C356.665 144.619 379.527 128.053 407.462 128.053H407.474C435.411 128.051 458.269 144.619 458.269 164.873Z" fill="#B76700"/>
</g>
<defs>
<clipPath id="clip0_1_15">
<rect width="1043" height="757" fill="white"/>
</clipPath>
</defs>
</svg>
