<?xml version="1.0" encoding="iso-8859-1"?>
<!-- Uploaded to: SVG Repo, www.svgrepo.com, Generator: SVG Repo Mixer Tools -->
<svg version="1.1" id="Layer_1" xmlns="http://www.w3.org/2000/svg" xmlns:xlink="http://www.w3.org/1999/xlink" 
	 viewBox="0 0 512 512" xml:space="preserve">
<g>
	<path style="fill:#D2E7F8;" d="M476.396,324.56c-15.079-104.113-102.172-184.909-209.142-190.233
		c-3.728-0.186-7.48-0.282-11.254-0.282c-3.762,0-7.501,0.096-11.217,0.281C137.796,139.633,50.684,220.435,35.604,324.56
		c-1.523,10.514-2.318,21.265-2.318,32.2h445.429C478.715,345.823,477.92,335.074,476.396,324.56z"/>
	<path style="fill:#D2E7F8;" d="M267.254,134.327c-3.728-0.186-7.48-0.282-11.254-0.282c-3.762,0-7.501,0.096-11.217,0.281
		C137.796,139.633,50.684,220.435,35.604,324.56h440.793C461.318,220.446,374.224,139.651,267.254,134.327z"/>
</g>
<path style="fill:#B3D8F5;" d="M35.604,324.56c-1.523,10.514-2.318,21.265-2.318,32.2h445.429c0-10.936-0.796-21.686-2.318-32.2
	H35.604z"/>
<rect x="7.745" y="356.759" style="fill:#57565C;" width="496.513" height="30.542"/>
<path style="fill:#C60024;" d="M267.254,134.327c7.11-6.45,15.348-14.52,17.516-19.097c0.814-1.718,1.872-3.83,2.207-6.876
	c1.073-9.774-6.279-18.482-16.112-18.578c-6.454-0.063-10.426,2.073-14.869,6.86c-4.643-4.643-8.462-6.953-14.951-6.859
	c-9.753,0.143-17.034,8.906-16.037,18.609c0.322,3.131,1.363,5.122,2.213,6.843c2.273,4.603,10.486,12.659,17.56,19.095
	c3.716-0.184,7.455-0.281,11.217-0.281C259.774,134.045,263.527,134.142,267.254,134.327z"/>
<g>
	<polygon style="fill:#D80029;" points="58.431,139.364 39.709,120.643 50.661,109.691 58.431,117.459 66.12,109.77 77.072,120.723 
			"/>
	<polygon style="fill:#D80029;" points="151.63,432.603 132.909,413.882 143.86,402.93 151.63,410.698 159.32,403.009 
		170.272,413.961 	"/>
	<polygon style="fill:#D80029;" points="333.894,499.38 315.173,480.659 326.126,469.706 333.894,477.476 341.584,469.787 
		352.535,480.739 	"/>
	<polygon style="fill:#D80029;" points="408.827,42.294 390.106,23.573 401.058,12.62 408.827,20.389 416.515,12.7 427.469,23.652 	
		"/>
</g>
<path d="M486.316,349.015c-1.874-56.67-24.268-110.15-63.563-151.33c-36.968-38.74-85.468-63.077-138.03-69.603
	c4.487-4.892,6.171-7.686,7.048-9.536l0.113-0.238c0.928-1.955,2.333-4.908,2.792-9.107c0.763-6.951-1.438-13.911-6.042-19.099
	c-4.493-5.062-10.942-8.003-17.695-8.068c-5.787-0.071-10.573,1.293-15.015,4.376c-4.054-2.809-8.67-4.474-14.992-4.374
	c-6.752,0.099-12.963,2.956-17.49,8.047c-4.616,5.191-6.852,12.152-6.138,19.1c0.452,4.387,1.905,7.32,2.867,9.262l0.107,0.216
	c0.904,1.831,2.609,4.594,7.042,9.416c-52.573,6.517-101.085,30.854-138.061,69.596c-39.304,41.182-61.701,94.667-63.576,151.343H0
	v46.032h512v-46.032h-25.684V349.015z M235.018,100.374c1.606-1.805,3.787-2.818,6.141-2.853c3.7-0.038,5.661,0.89,9.361,4.591
	l5.685,5.685l5.469-5.892c3.23-3.479,5.206-4.413,9.116-4.383c2.42,0.024,4.643,1.04,6.26,2.861c1.704,1.921,2.517,4.518,2.23,7.129
	c-0.176,1.602-0.71,2.726-1.386,4.149l-0.121,0.254c-0.315,0.664-2.385,4.333-13.389,14.539c-0.578-0.021-1.155-0.03-1.734-0.046
	c-0.466-0.013-0.932-0.027-1.398-0.038c-1.76-0.04-3.514-0.067-5.252-0.067c-1.713,0-3.448,0.027-5.187,0.066
	c-0.473,0.01-0.946,0.025-1.419,0.038c-0.578,0.017-1.153,0.026-1.733,0.046c-10.989-10.22-13.159-13.969-13.494-14.65l-0.114-0.232
	c-0.682-1.376-1.174-2.37-1.339-3.976C232.443,104.958,233.282,102.326,235.018,100.374z M245.166,142.06
	c7.284-0.36,14.468-0.358,21.705,0.001c111.864,5.568,200.037,95.782,203.963,206.953H41.166
	C45.093,237.827,133.283,147.61,245.166,142.06z M496.511,379.558H15.489v-15.053h10.051l0,0h460.918l0,0h10.051v15.053H496.511z"/>
<path d="M330.769,184.436c6.458,2.806,12.831,6.016,18.943,9.542l7.74-13.416c-6.617-3.819-13.519-7.294-20.512-10.333
	L330.769,184.436z"/>
<path d="M366.105,185.845l-8.4,13.014c19.22,12.407,35.862,28.035,49.462,46.451l12.46-9.202
	C404.91,216.181,386.903,199.27,366.105,185.845z"/>
</svg>